<?xml version="1.0" encoding="UTF-8" standalone="no"?><svg xmlns="http://www.w3.org/2000/svg" xmlns:xlink="http://www.w3.org/1999/xlink" contentScriptType="application/ecmascript" contentStyleType="text/css" height="979px" preserveAspectRatio="none" style="width:780px;height:979px;" version="1.1" viewBox="0 0 780 979" width="780px" zoomAndPan="magnify"><defs><filter height="300%" id="f1hupdajfww85a" width="300%" x="-1" y="-1"><feGaussianBlur result="blurOut" stdDeviation="2.0"/><feColorMatrix in="blurOut" result="blurOut2" type="matrix" values="0 0 0 0 0 0 0 0 0 0 0 0 0 0 0 0 0 0 .4 0"/><feOffset dx="4.0" dy="4.0" in="blurOut2" result="blurOut3"/><feBlend in="SourceGraphic" in2="blurOut3" mode="normal"/></filter></defs><g><!--cluster core--><path d="M224,872 C224,869 226,867 229,867 C232,867 234,869 234,872 C234,869 236,867 239,867 C242,867 244,869 244,872 C244,869 246,867 249,867 C252,867 254,869 254,872 C254,869 256,867 259,867 C262,867 264,869 264,872 C264,869 266,867 269,867 C272,867 274,869 274,872 C274,869 276,867 279,867 C282,867 284,869 284,872 C284,869 286,867 289,867 C292,867 294,869 294,872 C294,869 296,867 299,867 C302,867 304,869 304,872 C304,869 306,867 309,867 C312,867 314,869 314,872 C314,869 316,867 319,867 C322,867 324,869 324,872 C324,869 326,867 329,867 C332,867 334,869 334,872 C334,869 336,867 339,867 C342,867 344,869 344,872 C344,869 346,867 349,867 C352,867 354,869 354,872 C354,869 356,867 359,867 C362,867 364,869 364,872 C364,869 366,867 369,867 C372,867 374,869 374,872 C374,869 376,867 379,867 C382,867 384,869 384,872 C384,869 386,867 389,867 C392,867 394,869 394,872 C394,869 396,867 399,867 C402,867 404,869 404,872 C404,869 406,867 409,867 C412,867 414,869 414,872 C414,869 416,867 419,867 C422,867 424,869 424,872 C424,869 426,867 429,867 C432,867 434,869 434,872 C434,869 436,867 439,867 C442,867 444,869 444,872 C444,869 446,867 449,867 C452,867 454,869 454,872 C454,869 456,867 459,867 C462,867 464,869 464,872 C464,869 466,867 469,867 C472,867 474,869 474,872 C474,869 476,867 479,867 C482,867 484,869 484,872 C487,872 489,874 489,877 C489,880 487,882 484,882 C487,882 489,884 489,887 C489,890 487,892 484,892 C487,892 489,894 489,897 C489,900 487,902 484,902 C487,902 489,904 489,907 C489,910 487,912 484,912 C487,912 489,914 489,917 C489,920 487,922 484,922 C487,922 489,924 489,927 C489,930 487,932 484,932 C487,932 489,934 489,937 C489,940 487,942 484,942 C487,942 489,944 489,947 C489,950 487,952 484,952 C487,952 489,954 489,957 C489,960 487,962 484,962 C484,965 481,967 479,967 C476,967 474,965 474,962 C474,965 471,967 469,967 C466,967 464,965 464,962 C464,965 461,967 459,967 C456,967 454,965 454,962 C454,965 451,967 449,967 C446,967 444,965 444,962 C444,965 441,967 439,967 C436,967 434,965 434,962 C434,965 431,967 429,967 C426,967 424,965 424,962 C424,965 421,967 419,967 C416,967 414,965 414,962 C414,965 411,967 409,967 C406,967 404,965 404,962 C404,965 401,967 399,967 C396,967 394,965 394,962 C394,965 391,967 389,967 C386,967 384,965 384,962 C384,965 381,967 379,967 C376,967 374,965 374,962 C374,965 371,967 369,967 C366,967 364,965 364,962 C364,965 361,967 359,967 C356,967 354,965 354,962 C354,965 351,967 349,967 C346,967 344,965 344,962 C344,965 341,967 339,967 C336,967 334,965 334,962 C334,965 331,967 329,967 C326,967 324,965 324,962 C324,965 321,967 319,967 C316,967 314,965 314,962 C314,965 311,967 309,967 C306,967 304,965 304,962 C304,965 301,967 299,967 C296,967 294,965 294,962 C294,965 291,967 289,967 C286,967 284,965 284,962 C284,965 281,967 279,967 C276,967 274,965 274,962 C274,965 271,967 269,967 C266,967 264,965 264,962 C264,965 261,967 259,967 C256,967 254,965 254,962 C254,965 251,967 249,967 C246,967 244,965 244,962 C244,965 241,967 239,967 C236,967 234,965 234,962 C234,965 231,967 229,967 C226,967 224,965 224,962 C221,962 219,960 219,957 C219,954 221,952 224,952 C221,952 219,950 219,947 C219,944 221,942 224,942 C221,942 219,940 219,937 C219,934 221,932 224,932 C221,932 219,930 219,927 C219,924 221,922 224,922 C221,922 219,920 219,917 C219,914 221,912 224,912 C221,912 219,910 219,907 C219,904 221,902 224,902 C221,902 219,900 219,897 C219,894 221,892 224,892 C221,892 219,890 219,887 C219,884 221,882 224,882 C221,882 219,880 219,877 C219,874 221,872 224,872 " fill="#FFFFFF" filter="url(#f1hupdajfww85a)" style="stroke: #000000; stroke-width: 1.5;"/><text fill="#000000" font-family="sans-serif" font-size="14" font-weight="bold" lengthAdjust="spacingAndGlyphs" textLength="32" x="337.5" y="892.5332">core</text><!--cluster special--><path d="M533,512.5 C533,509.5 535,507.5 538,507.5 C541,507.5 543,509.5 543,512.5 C543,509.5 545,507.5 548,507.5 C551,507.5 553,509.5 553,512.5 C553,509.5 555,507.5 558,507.5 C561,507.5 563,509.5 563,512.5 C563,509.5 565,507.5 568,507.5 C571,507.5 573,509.5 573,512.5 C573,509.5 575,507.5 578,507.5 C581,507.5 583,509.5 583,512.5 C583,509.5 585,507.5 588,507.5 C591,507.5 593,509.5 593,512.5 C593,509.5 595,507.5 598,507.5 C601,507.5 603,509.5 603,512.5 C603,509.5 605,507.5 608,507.5 C611,507.5 613,509.5 613,512.5 C613,509.5 615,507.5 618,507.5 C621,507.5 623,509.5 623,512.5 C623,509.5 625,507.5 628,507.5 C631,507.5 633,509.5 633,512.5 C633,509.5 635,507.5 638,507.5 C641,507.5 643,509.5 643,512.5 C643,509.5 645,507.5 648,507.5 C651,507.5 653,509.5 653,512.5 C653,509.5 655,507.5 658,507.5 C661,507.5 663,509.5 663,512.5 C663,509.5 665,507.5 668,507.5 C671,507.5 673,509.5 673,512.5 C673,509.5 675,507.5 678,507.5 C681,507.5 683,509.5 683,512.5 C683,509.5 685,507.5 688,507.5 C691,507.5 693,509.5 693,512.5 C693,509.5 695,507.5 698,507.5 C701,507.5 703,509.5 703,512.5 C703,509.5 705,507.5 708,507.5 C711,507.5 713,509.5 713,512.5 C713,509.5 715,507.5 718,507.5 C721,507.5 723,509.5 723,512.5 C723,509.5 725,507.5 728,507.5 C731,507.5 733,509.5 733,512.5 C733,509.5 735,507.5 738,507.5 C741,507.5 743,509.5 743,512.5 C743,509.5 745,507.5 748,507.5 C751,507.5 753,509.5 753,512.5 C753,509.5 755,507.5 758,507.5 C761,507.5 763,509.5 763,512.5 C766,512.5 768,514.5 768,517.5 C768,520.5 766,522.5 763,522.5 C766,522.5 768,524.5 768,527.5 C768,530.5 766,532.5 763,532.5 C766,532.5 768,534.5 768,537.5 C768,540.5 766,542.5 763,542.5 C766,542.5 768,544.5 768,547.5 C768,550.5 766,552.5 763,552.5 C766,552.5 768,554.5 768,557.5 C768,560.5 766,562.5 763,562.5 C766,562.5 768,564.5 768,567.5 C768,570.5 766,572.5 763,572.5 C766,572.5 768,574.5 768,577.5 C768,580.5 766,582.5 763,582.5 C766,582.5 768,584.5 768,587.5 C768,590.5 766,592.5 763,592.5 C766,592.5 768,594.5 768,597.5 C768,600.5 766,602.5 763,602.5 C766,602.5 768,604.5 768,607.5 C768,610.5 766,612.5 763,612.5 C766,612.5 768,614.5 768,617.5 C768,620.5 766,622.5 763,622.5 C766,622.5 768,624.5 768,627.5 C768,630.5 766,632.5 763,632.5 C766,632.5 768,634.5 768,637.5 C768,640.5 766,642.5 763,642.5 C766,642.5 768,644.5 768,647.5 C768,650.5 766,652.5 763,652.5 C766,652.5 768,654.5 768,657.5 C768,660.5 766,662.5 763,662.5 C766,662.5 768,664.5 768,667.5 C768,670.5 766,672.5 763,672.5 C766,672.5 768,674.5 768,677.5 C768,680.5 766,682.5 763,682.5 C766,682.5 768,684.5 768,687.5 C768,690.5 766,692.5 763,692.5 C766,692.5 768,694.5 768,697.5 C768,700.5 766,702.5 763,702.5 C766,702.5 768,704.5 768,707.5 C768,710.5 766,712.5 763,712.5 C766,712.5 768,714.5 768,717.5 C768,720.5 766,722.5 763,722.5 C766,722.5 768,724.5 768,727.5 C768,730.5 766,732.5 763,732.5 C766,732.5 768,734.5 768,737.5 C768,740.5 766,742.5 763,742.5 C766,742.5 768,744.5 768,747.5 C768,750.5 766,752.5 763,752.5 C766,752.5 768,754.5 768,757.5 C768,760.5 766,762.5 763,762.5 C766,762.5 768,764.5 768,767.5 C768,770.5 766,772.5 763,772.5 C763,775.5 760,777.5 758,777.5 C755,777.5 753,775.5 753,772.5 C753,775.5 750,777.5 748,777.5 C745,777.5 743,775.5 743,772.5 C743,775.5 740,777.5 738,777.5 C735,777.5 733,775.5 733,772.5 C733,775.5 730,777.5 728,777.5 C725,777.5 723,775.5 723,772.5 C723,775.5 720,777.5 718,777.5 C715,777.5 713,775.5 713,772.5 C713,775.5 710,777.5 708,777.5 C705,777.5 703,775.5 703,772.5 C703,775.5 700,777.5 698,777.5 C695,777.5 693,775.5 693,772.5 C693,775.5 690,777.5 688,777.5 C685,777.5 683,775.5 683,772.5 C683,775.5 680,777.5 678,777.5 C675,777.5 673,775.5 673,772.5 C673,775.5 670,777.5 668,777.5 C665,777.5 663,775.5 663,772.5 C663,775.5 660,777.5 658,777.5 C655,777.5 653,775.5 653,772.5 C653,775.5 650,777.5 648,777.5 C645,777.5 643,775.5 643,772.5 C643,775.5 640,777.5 638,777.5 C635,777.5 633,775.5 633,772.5 C633,775.5 630,777.5 628,777.5 C625,777.5 623,775.5 623,772.5 C623,775.5 620,777.5 618,777.5 C615,777.5 613,775.5 613,772.5 C613,775.5 610,777.5 608,777.5 C605,777.5 603,775.5 603,772.5 C603,775.5 600,777.5 598,777.5 C595,777.5 593,775.5 593,772.5 C593,775.5 590,777.5 588,777.5 C585,777.5 583,775.5 583,772.5 C583,775.5 580,777.5 578,777.5 C575,777.5 573,775.5 573,772.5 C573,775.5 570,777.5 568,777.5 C565,777.5 563,775.5 563,772.5 C563,775.5 560,777.5 558,777.5 C555,777.5 553,775.5 553,772.5 C553,775.5 550,777.5 548,777.5 C545,777.5 543,775.5 543,772.5 C543,775.5 540,777.5 538,777.5 C535,777.5 533,775.5 533,772.5 C530,772.5 528,770.5 528,767.5 C528,764.5 530,762.5 533,762.5 C530,762.5 528,760.5 528,757.5 C528,754.5 530,752.5 533,752.5 C530,752.5 528,750.5 528,747.5 C528,744.5 530,742.5 533,742.5 C530,742.5 528,740.5 528,737.5 C528,734.5 530,732.5 533,732.5 C530,732.5 528,730.5 528,727.5 C528,724.5 530,722.5 533,722.5 C530,722.5 528,720.5 528,717.5 C528,714.5 530,712.5 533,712.5 C530,712.5 528,710.5 528,707.5 C528,704.5 530,702.5 533,702.5 C530,702.5 528,700.5 528,697.5 C528,694.5 530,692.5 533,692.5 C530,692.5 528,690.5 528,687.5 C528,684.5 530,682.5 533,682.5 C530,682.5 528,680.5 528,677.5 C528,674.5 530,672.5 533,672.5 C530,672.5 528,670.5 528,667.5 C528,664.5 530,662.5 533,662.5 C530,662.5 528,660.5 528,657.5 C528,654.5 530,652.5 533,652.5 C530,652.5 528,650.5 528,647.5 C528,644.5 530,642.5 533,642.5 C530,642.5 528,640.5 528,637.5 C528,634.5 530,632.5 533,632.5 C530,632.5 528,630.5 528,627.5 C528,624.5 530,622.5 533,622.5 C530,622.5 528,620.5 528,617.5 C528,614.5 530,612.5 533,612.5 C530,612.5 528,610.5 528,607.5 C528,604.5 530,602.5 533,602.5 C530,602.5 528,600.5 528,597.5 C528,594.5 530,592.5 533,592.5 C530,592.5 528,590.5 528,587.5 C528,584.5 530,582.5 533,582.5 C530,582.5 528,580.5 528,577.5 C528,574.5 530,572.5 533,572.5 C530,572.5 528,570.5 528,567.5 C528,564.5 530,562.5 533,562.5 C530,562.5 528,560.5 528,557.5 C528,554.5 530,552.5 533,552.5 C530,552.5 528,550.5 528,547.5 C528,544.5 530,542.5 533,542.5 C530,542.5 528,540.5 528,537.5 C528,534.5 530,532.5 533,532.5 C530,532.5 528,530.5 528,527.5 C528,524.5 530,522.5 533,522.5 C530,522.5 528,520.5 528,517.5 C528,514.5 530,512.5 533,512.5 " fill="#FFFFFF" filter="url(#f1hupdajfww85a)" style="stroke: #000000; stroke-width: 1.5;"/><text fill="#000000" font-family="sans-serif" font-size="14" font-weight="bold" lengthAdjust="spacingAndGlyphs" textLength="50" x="621" y="533.0332">special</text><!--cluster source--><polygon fill="#FFFFFF" filter="url(#f1hupdajfww85a)" points="22,24,77,24,84,47.6094,498,47.6094,498,824,22,824,22,24" style="stroke: #000000; stroke-width: 1.5;"/><line style="stroke: #000000; stroke-width: 1.5;" x1="22" x2="84" y1="47.6094" y2="47.6094"/><text fill="#000000" font-family="sans-serif" font-size="14" font-weight="bold" lengthAdjust="spacingAndGlyphs" textLength="49" x="26" y="40.5332">source</text><!--cluster integration--><polygon fill="#FFFFFF" filter="url(#f1hupdajfww85a)" points="147,669,230,669,237,692.6094,292,692.6094,292,792,147,792,147,669" style="stroke: #000000; stroke-width: 1.5;"/><line style="stroke: #000000; stroke-width: 1.5;" x1="147" x2="237" y1="692.6094" y2="692.6094"/><text fill="#000000" font-family="sans-serif" font-size="14" font-weight="bold" lengthAdjust="spacingAndGlyphs" textLength="77" x="151" y="685.5332">integration</text><!--cluster in--><polygon fill="#FFFFFF" filter="url(#f1hupdajfww85a)" points="67,497,86,497,93,520.6094,456,520.6094,456,620,67,620,67,497" style="stroke: #000000; stroke-width: 1.5;"/><line style="stroke: #000000; stroke-width: 1.5;" x1="67" x2="93" y1="520.6094" y2="520.6094"/><text fill="#000000" font-family="sans-serif" font-size="14" font-weight="bold" lengthAdjust="spacingAndGlyphs" textLength="13" x="71" y="513.5332">in</text><!--cluster out--><polygon fill="#FFFFFF" filter="url(#f1hupdajfww85a)" points="321,76,350,76,357,99.6094,466,99.6094,466,448,321,448,321,76" style="stroke: #000000; stroke-width: 1.5;"/><line style="stroke: #000000; stroke-width: 1.5;" x1="321" x2="357" y1="99.6094" y2="99.6094"/><text fill="#000000" font-family="sans-serif" font-size="14" font-weight="bold" lengthAdjust="spacingAndGlyphs" textLength="23" x="325" y="92.5332">out</text><!--entity spectrum-core--><rect fill="#FEFECE" filter="url(#f1hupdajfww85a)" height="37.6094" style="stroke: #A80036; stroke-width: 1.5;" width="111" x="350.5" y="909"/><rect fill="#FEFECE" height="5" style="stroke: #A80036; stroke-width: 1.5;" width="10" x="345.5" y="914"/><rect fill="#FEFECE" height="5" style="stroke: #A80036; stroke-width: 1.5;" width="10" x="345.5" y="936.6094"/><text fill="#000000" font-family="sans-serif" font-size="14" lengthAdjust="spacingAndGlyphs" textLength="91" x="360.5" y="933.5332">spectrum-core</text><!--entity gson--><rect fill="#FEFECE" filter="url(#f1hupdajfww85a)" height="37.6094" style="stroke: #A80036; stroke-width: 1.5;" width="51" x="264.5" y="909"/><rect fill="#FEFECE" height="5" style="stroke: #A80036; stroke-width: 1.5;" width="10" x="259.5" y="914"/><rect fill="#FEFECE" height="5" style="stroke: #A80036; stroke-width: 1.5;" width="10" x="259.5" y="936.6094"/><text fill="#000000" font-family="sans-serif" font-size="14" lengthAdjust="spacingAndGlyphs" textLength="31" x="274.5" y="933.5332">gson</text><!--entity databases--><rect fill="#FEFECE" filter="url(#f1hupdajfww85a)" height="37.6094" style="stroke: #A80036; stroke-width: 1.5;" width="86" x="573" y="549.5"/><rect fill="#FEFECE" height="5" style="stroke: #A80036; stroke-width: 1.5;" width="10" x="568" y="554.5"/><rect fill="#FEFECE" height="5" style="stroke: #A80036; stroke-width: 1.5;" width="10" x="568" y="577.1094"/><text fill="#000000" font-family="sans-serif" font-size="14" lengthAdjust="spacingAndGlyphs" textLength="66" x="583" y="574.0332">databases</text><!--entity bus--><rect fill="#FEFECE" filter="url(#f1hupdajfww85a)" height="37.6094" style="stroke: #A80036; stroke-width: 1.5;" width="43" x="694.5" y="549.5"/><rect fill="#FEFECE" height="5" style="stroke: #A80036; stroke-width: 1.5;" width="10" x="689.5" y="554.5"/><rect fill="#FEFECE" height="5" style="stroke: #A80036; stroke-width: 1.5;" width="10" x="689.5" y="577.1094"/><text fill="#000000" font-family="sans-serif" font-size="14" lengthAdjust="spacingAndGlyphs" textLength="23" x="704.5" y="574.0332">bus</text><!--entity ktor--><rect fill="#FEFECE" filter="url(#f1hupdajfww85a)" height="37.6094" style="stroke: #A80036; stroke-width: 1.5;" width="44" x="594" y="721.5"/><rect fill="#FEFECE" height="5" style="stroke: #A80036; stroke-width: 1.5;" width="10" x="589" y="726.5"/><rect fill="#FEFECE" height="5" style="stroke: #A80036; stroke-width: 1.5;" width="10" x="589" y="749.1094"/><text fill="#000000" font-family="sans-serif" font-size="14" lengthAdjust="spacingAndGlyphs" textLength="24" x="604" y="746.0332">ktor</text><!--entity test--><rect fill="#FEFECE" filter="url(#f1hupdajfww85a)" height="37.6094" style="stroke: #A80036; stroke-width: 1.5;" width="43" x="42.5" y="721.5"/><rect fill="#FEFECE" height="5" style="stroke: #A80036; stroke-width: 1.5;" width="10" x="37.5" y="726.5"/><rect fill="#FEFECE" height="5" style="stroke: #A80036; stroke-width: 1.5;" width="10" x="37.5" y="749.1094"/><text fill="#000000" font-family="sans-serif" font-size="14" lengthAdjust="spacingAndGlyphs" textLength="23" x="52.5" y="746.0332">test</text><!--entity model--><rect fill="#FEFECE" filter="url(#f1hupdajfww85a)" height="55.2188" style="stroke: #A80036; stroke-width: 1.5;" width="77" x="190.5" y="713"/><rect fill="#FEFECE" height="5" style="stroke: #A80036; stroke-width: 1.5;" width="10" x="185.5" y="718"/><rect fill="#FEFECE" height="5" style="stroke: #A80036; stroke-width: 1.5;" width="10" x="185.5" y="758.2188"/><text fill="#000000" font-family="sans-serif" font-size="14" font-style="italic" lengthAdjust="spacingAndGlyphs" textLength="57" x="200.5" y="737.5332">«maven»</text><text fill="#000000" font-family="sans-serif" font-size="14" lengthAdjust="spacingAndGlyphs" textLength="38" x="210" y="755.1426">model</text><!--entity db--><rect fill="#FEFECE" filter="url(#f1hupdajfww85a)" height="55.2188" style="stroke: #A80036; stroke-width: 1.5;" width="94" x="338" y="541"/><rect fill="#FEFECE" height="5" style="stroke: #A80036; stroke-width: 1.5;" width="10" x="333" y="546"/><rect fill="#FEFECE" height="5" style="stroke: #A80036; stroke-width: 1.5;" width="10" x="333" y="586.2188"/><text fill="#000000" font-family="sans-serif" font-size="14" font-style="italic" lengthAdjust="spacingAndGlyphs" textLength="74" x="348" y="565.5332">«migration»</text><text fill="#000000" font-family="sans-serif" font-size="14" lengthAdjust="spacingAndGlyphs" textLength="16" x="377" y="583.1426">db</text><!--entity transport--><rect fill="#FEFECE" filter="url(#f1hupdajfww85a)" height="37.6094" style="stroke: #A80036; stroke-width: 1.5;" width="77" x="225.5" y="549.5"/><rect fill="#FEFECE" height="5" style="stroke: #A80036; stroke-width: 1.5;" width="10" x="220.5" y="554.5"/><rect fill="#FEFECE" height="5" style="stroke: #A80036; stroke-width: 1.5;" width="10" x="220.5" y="577.1094"/><text fill="#000000" font-family="sans-serif" font-size="14" lengthAdjust="spacingAndGlyphs" textLength="57" x="235.5" y="574.0332">transport</text><!--entity agent--><rect fill="#FEFECE" filter="url(#f1hupdajfww85a)" height="55.2188" style="stroke: #A80036; stroke-width: 1.5;" width="80" x="110" y="541"/><rect fill="#FEFECE" height="5" style="stroke: #A80036; stroke-width: 1.5;" width="10" x="105" y="546"/><rect fill="#FEFECE" height="5" style="stroke: #A80036; stroke-width: 1.5;" width="10" x="105" y="586.2188"/><text fill="#000000" font-family="sans-serif" font-size="14" font-style="italic" lengthAdjust="spacingAndGlyphs" textLength="60" x="120" y="565.5332">«service»</text><text fill="#000000" font-family="sans-serif" font-size="14" lengthAdjust="spacingAndGlyphs" textLength="36" x="132" y="583.1426">agent</text><!--entity provider--><rect fill="#FEFECE" filter="url(#f1hupdajfww85a)" height="55.2188" style="stroke: #A80036; stroke-width: 1.5;" width="77" x="346.5" y="369"/><rect fill="#FEFECE" height="5" style="stroke: #A80036; stroke-width: 1.5;" width="10" x="341.5" y="374"/><rect fill="#FEFECE" height="5" style="stroke: #A80036; stroke-width: 1.5;" width="10" x="341.5" y="414.2188"/><text fill="#000000" font-family="sans-serif" font-size="14" font-style="italic" lengthAdjust="spacingAndGlyphs" textLength="57" x="356.5" y="393.5332">«maven»</text><text fill="#000000" font-family="sans-serif" font-size="14" lengthAdjust="spacingAndGlyphs" textLength="52" x="359" y="411.1426">provider</text><!--entity service--><rect fill="#FEFECE" filter="url(#f1hupdajfww85a)" height="55.2188" style="stroke: #A80036; stroke-width: 1.5;" width="80" x="345" y="253"/><rect fill="#FEFECE" height="5" style="stroke: #A80036; stroke-width: 1.5;" width="10" x="340" y="258"/><rect fill="#FEFECE" height="5" style="stroke: #A80036; stroke-width: 1.5;" width="10" x="340" y="298.2188"/><text fill="#000000" font-family="sans-serif" font-size="14" font-style="italic" lengthAdjust="spacingAndGlyphs" textLength="60" x="355" y="277.5332">«service»</text><text fill="#000000" font-family="sans-serif" font-size="14" lengthAdjust="spacingAndGlyphs" textLength="45" x="362.5" y="295.1426">service</text><!--entity client--><rect fill="#FEFECE" filter="url(#f1hupdajfww85a)" height="55.2188" style="stroke: #A80036; stroke-width: 1.5;" width="77" x="345.5" y="120"/><rect fill="#FEFECE" height="5" style="stroke: #A80036; stroke-width: 1.5;" width="10" x="340.5" y="125"/><rect fill="#FEFECE" height="5" style="stroke: #A80036; stroke-width: 1.5;" width="10" x="340.5" y="165.2188"/><text fill="#000000" font-family="sans-serif" font-size="14" font-style="italic" lengthAdjust="spacingAndGlyphs" textLength="57" x="355.5" y="144.5332">«maven»</text><text fill="#000000" font-family="sans-serif" font-size="14" lengthAdjust="spacingAndGlyphs" textLength="33" x="367.5" y="162.1426">client</text><!--link model to core--><path d="M229,768.078 C229,780.7008 229,796.7354 229,813.7382 C229,822.2396 229,830.983 229,839.663 C229,844.003 229,848.3271 229,852.5972 C229,854.7323 229,856.8538 229,858.9571 C229,860.0087 229,861.0558 229,862.0976 C229,862.6186 229,863.1382 229,863.6565 C229,863.9157 229,864.1745 229,864.4329 " fill="none" id="model-core" style="stroke: #A80036; stroke-width: 1.0;"/><polygon fill="#A80036" points="229,864.4329,233,855.4329,229,859.4329,225,855.4329,229,864.4329" style="stroke: #A80036; stroke-width: 1.0;"/><!--link test to model--><path d="M72.8977,721.087 C88.5383,690.157 123.603,634.173 168.5,644.5 C197.118,651.083 212.921,682.548 221.13,707.687 " fill="none" id="test-model" style="stroke: #A80036; stroke-width: 1.0;"/><polygon fill="#A80036" points="222.672,712.621,223.8048,702.8375,221.1803,707.8487,216.1691,705.2242,222.672,712.621" style="stroke: #A80036; stroke-width: 1.0;"/><!--link transport to db--><path d="M302.758,568.5 C312.698,568.5 322.637,568.5 332.577,568.5 " fill="none" id="transport-db" style="stroke: #A80036; stroke-width: 1.0;"/><polygon fill="#A80036" points="337.775,568.5,328.775,564.5,332.775,568.5,328.775,572.5,337.775,568.5" style="stroke: #A80036; stroke-width: 1.0;"/><!--link agent to transport--><path d="M190.078,568.5 C200.078,568.5 210.078,568.5 220.077,568.5 " fill="none" id="agent-transport" style="stroke: #A80036; stroke-width: 1.0;"/><polygon fill="#A80036" points="225.307,568.5,216.307,564.5,220.307,568.5,216.307,572.5,225.307,568.5" style="stroke: #A80036; stroke-width: 1.0;"/><!--link in to model--><path d="M82.7098,620.267 C83.102,621.1164 83.513,621.9561 83.9436,622.7842 C84.8049,624.4403 85.7446,626.0499 86.7697,627.5968 C88.8199,630.6908 91.2116,633.5344 94,636 C102.594,643.599 133.726,641.88 145,644 C163.335,647.447 171.294,641.521 186,653 C203.401,666.582 214.276,689.065 220.735,707.705 " fill="none" id="in-model" style="stroke: #A80036; stroke-width: 1.0;"/><polygon fill="#A80036" points="222.442,712.85,223.4049,703.0483,220.8677,708.1043,215.8117,705.5672,222.442,712.85" style="stroke: #A80036; stroke-width: 1.0;"/><!--link in to special--><path d="M84.6638,496.9099 C84.7821,496.6387 84.9018,496.3681 85.0227,496.0982 C85.5067,495.0187 86.012,493.9503 86.5396,492.8952 C88.6502,488.6749 91.1178,484.6663 94,481 C99.3439,474.202 103.0733,474.438 111.5,472.5 C150.59,463.509 433.41,463.509 472.5,472.5 C496.489,478.0175 512.4893,500.0788 522.6669,521.6625 C525.2113,527.0584 527.3918,532.4245 529.2422,537.4948 C529.4735,538.1286 529.6996,538.7578 529.9207,539.3818 " fill="none" id="in-special" style="stroke: #A80036; stroke-width: 1.0; stroke-dasharray: 7.0,7.0;"/><polygon fill="#A80036" points="529.9207,539.3818,530.6859,529.5627,528.2512,534.6688,523.1451,532.234,529.9207,539.3818" style="stroke: #A80036; stroke-width: 1.0;"/><!--link client to service--><path d="M384.202,175.01 C384.362,195.912 384.585,225.144 384.755,247.376 " fill="none" id="client-service" style="stroke: #A80036; stroke-width: 1.0; stroke-dasharray: 7.0,7.0;"/><polygon fill="#A80036" points="384.795,252.58,388.7255,243.5494,384.7564,247.5801,380.7257,243.6111,384.795,252.58" style="stroke: #A80036; stroke-width: 1.0;"/><text fill="#000000" font-family="sans-serif" font-size="13" lengthAdjust="spacingAndGlyphs" textLength="22" x="386" y="219.4951">rest</text><!--link service to provider--><path d="M385,308.228 C385,324.808 385,346.202 385,363.658 " fill="none" id="service-provider" style="stroke: #A80036; stroke-width: 1.0;"/><polygon fill="#A80036" points="385,368.94,389,359.94,385,363.94,381,359.94,385,368.94" style="stroke: #A80036; stroke-width: 1.0;"/><!--link provider to db--><path d="M385,424.062 C385,454.289 385,503.625 385,535.828 " fill="none" id="provider-db" style="stroke: #A80036; stroke-width: 1.0; stroke-dasharray: 7.0,7.0;"/><polygon fill="#A80036" points="385,540.844,389,531.844,385,535.844,381,531.844,385,540.844" style="stroke: #A80036; stroke-width: 1.0;"/><!--link out to special--><path d="M466.0021,159.5951 C466.048,159.6624 466.0941,159.73 466.1402,159.7978 C466.2326,159.9335 466.3255,160.0701 466.4188,160.2077 C467.9123,162.4092 469.5294,164.8591 471.2055,167.5025 C477.9098,178.0763 485.5565,191.7465 490,205 C515.4265,280.84 527.4518,369.84 533.108,440.6735 C534.5221,458.3819 535.5381,474.9548 536.2659,489.9029 C536.4478,493.64 536.6118,497.2754 536.7594,500.8017 C536.7963,501.6832 536.8322,502.558 536.8671,503.4258 C536.8846,503.8597 536.9018,504.2918 536.9187,504.7223 " fill="none" id="out-special" style="stroke: #A80036; stroke-width: 1.0; stroke-dasharray: 7.0,7.0;"/><polygon fill="#A80036" points="536.9187,504.7223,540.5613,495.5717,536.7219,499.7261,532.5675,495.8867,536.9187,504.7223" style="stroke: #A80036; stroke-width: 1.0;"/><!--link out to model--><path d="M466.1009,177.6067 C466.2707,178.283 466.4416,178.9684 466.6134,179.6625 C466.9571,181.0506 467.3044,182.4734 467.6541,183.9285 C468.3535,186.8387 469.0622,189.8781 469.7695,193.0268 C475.4283,218.2163 481,250.4055 481,279.5 C481,279.5 481,279.5 481,569.5 C481,668.838 344.758,714.002 272.628,730.952 " fill="none" id="out-model" style="stroke: #A80036; stroke-width: 1.0;"/><polygon fill="#A80036" points="267.548,732.124,277.217,733.9976,272.4199,730.9996,275.418,726.2025,267.548,732.124" style="stroke: #A80036; stroke-width: 1.0;"/><!--link integration to test--><path d="M146.9968,740.5 C146.8309,740.5 146.6651,740.5 146.4993,740.5 C143.8464,740.5 141.1935,740.5 138.5406,740.5 C133.2348,740.5 127.9289,740.5 122.623,740.5 C112.0112,740.5 101.3995,740.5 90.788,740.5 " fill="none" id="integration-test" style="stroke: #A80036; stroke-width: 1.0; stroke-dasharray: 7.0,7.0;"/><polygon fill="#A80036" points="85.6836,740.5,94.6836,744.5,90.6836,740.5,94.6836,736.5,85.6836,740.5" style="stroke: #A80036; stroke-width: 1.0;"/><!--link in to test--><path d="M71.9939,620.1303 C71.9796,620.3633 71.9653,620.5962 71.9509,620.8292 C71.9222,621.2952 71.8934,621.7612 71.8646,622.227 C71.807,623.1586 71.7493,624.0896 71.6916,625.0187 C71.4605,628.7352 71.2286,632.4219 71,636 C69.2427,663.505 67.085,695.11 65.6335,716.086 " fill="none" id="in-test" style="stroke: #A80036; stroke-width: 1.0; stroke-dasharray: 7.0,7.0;"/><polygon fill="#A80036" points="65.2804,721.181,69.8956,712.4804,65.6275,716.1931,61.9149,711.925,65.2804,721.181" style="stroke: #A80036; stroke-width: 1.0;"/><!--link out to test--><path d="M320.8057,204.0619 C320.1253,204.1291 319.4436,204.1958 318.7608,204.2621 C317.3953,204.3947 316.025,204.5257 314.6505,204.6553 C303.6539,205.6917 292.3786,206.6339 280.9661,207.5379 C258.1412,209.346 234.7676,211.0018 211.9778,212.9554 C120.8185,220.7698 39,233.349 39,279.5 C39,279.5 39,279.5 39,569.5 C39,622.452 51.0192,683.703 58.39,716.287 " fill="none" id="out-test" style="stroke: #A80036; stroke-width: 1.0; stroke-dasharray: 7.0,7.0;"/><polygon fill="#A80036" points="59.5305,721.265,61.4213,711.5993,58.4147,716.3911,53.623,713.3846,59.5305,721.265" style="stroke: #A80036; stroke-width: 1.0;"/><!--link databases to bus--><!--link databases to ktor--><!--
@startuml

cloud "core" {
    [spectrum-core]
    [gson]
}

cloud "special"{
    [databases]
    [bus]
    [ktor]
}

package "source" {
    [test]

    folder integration {

        [model]<<maven>>
        model- ->core
        test - -> model

    }

    folder in {
            [db]<<migration>>
            [transport]
            [agent]<<service>>
            transport -> db
            agent -> transport
            in - -> model
            in .> special
     }
    folder out {
        [provider]<<maven>>
        [service]<<service>>
        [client]<<maven>>
        client ..> service : rest
        service - -> provider
        provider ..> db
        out .> special
        out - -> model
    }
    integration ..> test
    in ..> test
    out ..> test
}



@enduml

PlantUML version 1.2018.11(Sat Sep 22 21:43:53 YEKT 2018)
(GPL source distribution)
Java Runtime: OpenJDK Runtime Environment
JVM: OpenJDK 64-Bit Server VM
Java Version: 1.8.0_152-release-1343-b26
Operating System: Windows 10
OS Version: 10.0
Default Encoding: Cp1251
Language: ru
Country: RU
--></g></svg>